<svg xmlns="http://www.w3.org/2000/svg" width="345" height="290.411" viewBox="0 0 345 290.411"><defs><style>.a{fill:none;stroke:#c2ac92;stroke-linecap:round;stroke-width:2px;}.b{fill:#c2ac92;font-size:40px;font-family:Zapfino;}.c{letter-spacing:-0.03em;}</style></defs><g transform="translate(-518 -394.589)"><g transform="translate(1 -0.44)"><g transform="translate(-1.355 -94.714)"><path class="a" d="M660.353,522.162a42.267,42.267,0,0,1-2.366,4.976s-4.131,8.254,1.112,11.074c2.1,1.13,8.806,1.324,12.492,2.921,4.425,1.917,8.123,5.961,5.619,6.632s-8.452-7-8.452-7"/><path class="a" d="M656.5,535.188s-11.71,10.488,2.247,18.148a17.167,17.167,0,0,0,9.423,2.437s6.306-.337,9.951,1.879,10.176-.7,10.176-.7"/><path class="a" d="M669.1,540.869s-5.316,8.891,4.588,11.48,9.794,1.471,15.063,4.66c4.872,1.2,17.388-1.407,17.388-1.407"/><path class="a" d="M725.669,551.274a2.181,2.181,0,0,1,.814,1.476c.1.215-.348.776-2.274,1.022-4.123.528-10.321,7.071-16.342,2.309s-12.987-3.8-16.373-5.47-2.581-5.254-3.286-6.7"/><path class="a" d="M673.048,529.113c.242.755,3.716,11.73,14.961,14.784,12.027,3.267,16.7.3,24.947,7.9,1.4,1.418,4.088-.122,2.551-2.031"/><path class="a" d="M710.241,544.912s4.911-.434,6.954,3.013,7.41,2.605,9.883,3.487c1.184.422,3.008-.676,3.369-2.224.262-1.048-1.028-2.583-1.978-2.791"/><path class="a" d="M716.2,541.752s11.131,5.624,13.582,4.545c.782-.344,2.695-.391,2.586-1.374-.086-1.129-3.012-3.643-3.012-3.643"/></g><g transform="translate(5.284 -96)"><path class="a" d="M0,1.944a10.734,10.734,0,0,0,10.142,4.6C16.9,5.7,5.085-1.171,1.286.174" transform="matrix(1, 0.017, -0.017, 1, 679.464, 513.729)"/><path class="a" d="M645.535,498.121s17.763,26.565,51.154,37.962c14.426,4.925,32.065,8.407,52.613,2.763,17.193-7.987-72.47-57.225-102.6-44.421" transform="matrix(1, 0.017, -0.017, 1, -6.229, -11.425)"/><path class="a" d="M10.253,0,0,6.405" transform="matrix(1, 0.017, -0.017, 1, 667.945, 518.443)"/><line class="a" y1="1.802" x2="19.82" transform="matrix(1, 0.017, -0.017, 1, 656.018, 514.822)"/><path class="a" d="M0,0,33.857,13.038" transform="matrix(1, 0.017, -0.017, 1, 641.364, 498.23)"/><line class="a" x2="9.009" y2="8.108" transform="matrix(1, 0.017, -0.017, 1, 668.849, 502.289)"/><line class="a" x2="2.703" y2="5.405" transform="matrix(1, 0.017, -0.017, 1, 679.611, 505.247)"/><line class="a" x2="18.919" y2="3.803" transform="matrix(1, 0.017, -0.017, 1, 694.707, 518.04)"/><line class="a" x2="28.864" y2="12.893" transform="translate(694.636 522.215)"/><line class="a" x2="3.604" y2="11.712" transform="matrix(1, 0.017, -0.017, 1, 689.517, 523.676)"/><line class="a" x1="4.504" y2="9.009" transform="matrix(1, 0.017, -0.017, 1, 678.427, 521.68)"/><path class="a" d="M0,3.225,1.17,0" transform="matrix(1, 0.017, -0.017, 1, 686.93, 508.377)"/><line class="a" y1="0.901" x2="7.207" transform="matrix(1, 0.017, -0.017, 1, 690.294, 512.695)"/><path class="a" d="M620.624,605.785s-47.08,33.486,64.013,40.563c14.426,1.326,99.674-11.642,64.153-40.874"/><path class="a" d="M642.819,568.157a102.869,102.869,0,0,0,39.806,9.832c11.782.473,26.591-.646,39.613-7.514" transform="translate(25.137 -33.963) rotate(3)"/><path class="a" d="M0,13" transform="translate(724.5 541.5)"/><path class="a" d="M645.264,545.048s-18.333,4.675-25.613,22.413c-5.1,12.416-2.536,33.737,7.643,55.3"/><path class="a" d="M725.736,546.539s45.491,10.366,15.6,75.3"/><path class="a" d="M804.808,577.887a8.625,8.625,0,0,1-2.249,2" transform="translate(-80.823 -9.361)"/></g></g><text class="b" transform="translate(518 550)"><tspan x="0" y="75">Drunke</tspan><tspan class="c" y="75">n</tspan><tspan y="75">Cake</tspan></text></g></svg>