<svg xmlns="http://www.w3.org/2000/svg" viewBox="0 0 182.25 191.4"><defs><style>.cls-1{fill:#250404;}.cls-2{fill:#c2ac92;}</style></defs><title>資產 2</title><g id="圖層_2" data-name="圖層 2"><g id="圖層_1-2" data-name="圖層 1"><g id="xYIZHb.tif"><g id="Group_12" data-name="Group 12"><g id="Group_2" data-name="Group 2"><g id="Path_8" data-name="Path 8"><path class="cls-1" d="M74.5,72.71c-3.61,0-8.87-6.25-11.07-9.08a1.92,1.92,0,0,1-.18-.31C61.86,63,60.4,62.8,59,62.57c-2.88-.46-5.38-.87-6.79-1.63-7.53-4-2.21-14.92-2-15.38a48.82,48.82,0,0,0,2.81-5.9,1.5,1.5,0,0,1,2.79,1.11,51.68,51.68,0,0,1-3,6.2s-4.23,8.65.75,11.33a26.56,26.56,0,0,0,5.85,1.31,41.34,41.34,0,0,1,9.14,2.17c4.33,1.87,8.88,5.66,8.67,8.51a2.63,2.63,0,0,1-2.09,2.33A2.84,2.84,0,0,1,74.5,72.71Zm-5.92-7.64c2.33,2.52,4.56,4.4,5.6,4.63A14.54,14.54,0,0,0,68.58,65.07Z"/><path class="cls-1" d="M74.5,71.71c-4.86-.6-6.77-5.79-10.1-8.49-2.51-2-6.58-1.6-9.73-2.47-5.81-1.61-6.13-7.26-4.55-12.16a23.48,23.48,0,0,1,1-2.45,21.91,21.91,0,0,1,1.55-3c.55-.79.61-2.75.88-.72s-2.15,5.25-2.75,7.51-.93,5,.27,7.1c1.64,2.92,5.22,3,8.2,3.55A49.17,49.17,0,0,1,67,62.23a21.65,21.65,0,0,1,4,1.91,15,15,0,0,1,3,2.24c1.54,1.19,1.72,3,.55,5.33-1.26.16-1.27,2.16,0,2,4-.51,4.52-4,2.48-7-3.84-5.54-11.08-7-17.22-8.08-1.36-.24-3.58-.32-4.86-.94-3.28-1.6-2.91-4.49-2.21-7.25a33.45,33.45,0,0,1,2.65-6c.86-1.8,2.82-8.48-2-6.44-2,.84-3.19,5.39-4,7.08a25.34,25.34,0,0,0-1.45,3.81c-1,3.45-1.26,7.53,1,10.55,3.62,4.87,10.49,2.27,14.34,5.62,3.63,3.16,5.93,8,11.22,8.67C75.78,73.87,75.77,71.87,74.5,71.71Z"/><path class="cls-1" d="M67.87,65.77a34.15,34.15,0,0,0,3.53,3.38,7.35,7.35,0,0,0,2.51,1.52A1,1,0,0,0,75,69.2c-1.25-2.22-3.77-3.84-6-5-1.14-.6-2.15,1.13-1,1.73,1.88,1,4.15,2.36,5.23,4.28l1.13-1.47a6.25,6.25,0,0,1-2.12-1.41,36.91,36.91,0,0,1-3-3C68.41,63.42,67,64.83,67.87,65.77Z"/></g><g id="Path_9" data-name="Path 9"><path class="cls-1" d="M80.13,85.62a9.55,9.55,0,0,1-5-1.21c-4-2.41-11.1-2.06-11.17-2.06a22.24,22.24,0,0,1-12.24-3.16c-5.41-3-8.43-6.68-8.93-11C42,61,48.52,55.1,48.8,54.85a1.5,1.5,0,0,1,2,2.23c-.09.09-5.66,5.19-5,10.78.38,3.29,2.89,6.23,7.44,8.73a19.35,19.35,0,0,0,10.62,2.76c.3,0,8.11-.39,12.86,2.49,3.05,1.86,8.91,0,10.91-.93a1.5,1.5,0,0,1,1.23,2.74A24.46,24.46,0,0,1,80.13,85.62Z"/><path class="cls-1" d="M80.13,84.62c-3.63-.24-6.95-2.46-10.58-3a37.88,37.88,0,0,0-5-.31c-7.06,0-15.5-2.68-19.35-9.18-2.22-3.74-1.62-8,.43-11.7.27-.47,2.8-4.94,3.73-4.77,1.51.28-1.57,3.3-1.89,3.76a14.64,14.64,0,0,0-2.55,5.69c-1.82,10.26,11.54,15.14,19.55,15.2a34.41,34.41,0,0,1,7,.63c2.57.56,4.74,2.19,7.32,2.58a15.53,15.53,0,0,0,6.41-.73c.12,0,3.23-1.07,2.25.31-.85,1.21-6.48,1.45-7.35,1.5-1.28.07-1.29,2.07,0,2,2.45-.14,9.59-.4,10.49-3.67,1.16-4.25-4.12-2.57-5.92-2.06-6,1.67-11.19-2-17.22-2.47-6.78-.48-13.33-.69-18.39-6.12-3.49-3.74-2.43-8.4.36-12.15.78-1,2.52-2.31,2.76-3.72.44-2.56-2.26-3.45-4.12-2.29C41.15,58.49,40,69.58,45.15,75.4a25.19,25.19,0,0,0,18,7.95,40.75,40.75,0,0,1,7.07.42c3.5.66,6.27,2.61,9.89,2.85C81.41,86.7,81.41,84.7,80.13,84.62Z"/></g><g id="Path_10" data-name="Path 10"><path class="cls-1" d="M92.9,84.22a19.4,19.4,0,0,1-4.47-.42l-.22,0-.2-.12a21,21,0,0,0-9-3.42c-2-.41-4.73-1-8.86-2s-6.59-3-7.74-5.82c-2-4.76,1.16-10.05,1.29-10.28a1.5,1.5,0,0,1,2.58,1.54h0s-2.48,4.25-1.09,7.62c.78,1.89,2.7,3.25,5.72,4,4,1.06,6.74,1.61,8.7,2a24,24,0,0,1,9.71,3.67c4.7,1,16.09-.92,20.15-1.77a1.5,1.5,0,0,1,.61,2.94C109.61,82.22,99.89,84.22,92.9,84.22Z"/><path class="cls-1" d="M92.9,83.22c-5.09-.13-9.45-3.11-14.49-4.16C71.74,77.66,61.38,76.37,63,67c.17-1,2-6,2.09-3.16.06,1.44-1.25,3.17-1.27,4.78,0,4,2.61,6.21,6.17,7.39,4.91,1.64,10.32,1.81,15.09,3.83,2,.85,3.47,2,5.61,2.3a29.55,29.55,0,0,0,7-.17c2.23-.21,4.46-.51,6.68-.86.55-.08,6-1.25,5,.14-.52.69-5,.89-5.75,1a82.43,82.43,0,0,1-10.76,1,1,1,0,0,0,0,2c2.25,0,22.52-.31,18.92-5.86-1.58-2.44-6.33-.43-8.56-.09a75,75,0,0,1-9.33.93c-3.14.08-5.41-1.13-8.24-2.31-5-2.07-10.65-2-15.68-4-5.23-2.08-3.84-5.65-2.83-9.76.31-1.26.54-2.2-.6-3.16-2-1.67-3.6.38-4.41,2-1.78,3.65-2,8.47.55,11.82C66,79,72,79.74,76.88,80.78c5.64,1.2,10.25,4.29,16,4.44A1,1,0,0,0,92.9,83.22Z"/></g><g id="Path_11" data-name="Path 11"><path class="cls-1" d="M117.62,84.81A10.47,10.47,0,0,1,111,82.4c-4.4-3.48-9.39-4.28-13.39-4.92A22.14,22.14,0,0,1,91.44,76c-3.64-1.79-4.07-5.06-4.35-7.22a6.5,6.5,0,0,0-.31-1.56,1.5,1.5,0,0,1,2.7-1.32,8.2,8.2,0,0,1,.58,2.49c.25,1.89.51,3.83,2.7,4.92A20.6,20.6,0,0,0,98,74.52c4.35.69,9.77,1.56,14.79,5.53,4.29,3.39,8.68,1.2,12.92-.92A19.41,19.41,0,0,1,131.46,77a7.8,7.8,0,0,0,1.16-.23.86.86,0,0,0-.14-.13,1.5,1.5,0,1,1,1.87-2.35,4.14,4.14,0,0,1,1.52,2.66,1.75,1.75,0,0,1-.19,1.26c-.52.92-1.77,1.5-3.84,1.76a18.09,18.09,0,0,0-4.75,1.9C124.41,83.16,121.11,84.81,117.62,84.81Zm15.41-7h0Z"/><path class="cls-1" d="M117.62,83.81c-4.6-.29-7.69-3.86-11.85-5.42C102.1,77,98.21,77,94.49,75.92c-3.1-.9-5.25-2.49-6.15-5.66-.13-.47-.84-3.79.55-3,.4.24.49,3.19.73,3.79a5.56,5.56,0,0,0,2.09,2.67c2.54,1.76,6.24,1.68,9.18,2.26,4.68.93,8.12,3,12.15,5.36,6.82,4,13.22-2.41,19.85-3.69a1,1,0,0,0,.44-1.67c1.67,1.58-1.66,2.9-2.46,3.12a14.72,14.72,0,0,0-2.54,1c-3.56,1.61-6.71,3.41-10.71,3.71-1.27.09-1.28,2.09,0,2,5.54-.42,10-3.51,15.19-5,2.16-.64,4.35-1.37,4-4.12-.74-6.31-8.56-2.66-4.92.79l.44-1.67c-5.22,1-11.06,6.23-16.4,4.82-2.87-.76-5.39-3.47-8.19-4.63a32.46,32.46,0,0,0-5.69-1.73c-2.19-.47-4.63-.51-6.76-1.19-4.75-1.51-3.1-4.52-4.88-7.44-.79-1.31-2.24-2.06-3.68-1.13-1.91,1.25-.78,4.6-.35,6.33a8.73,8.73,0,0,0,4.64,6.08c4.1,2,9.18,1.69,13.49,3.21,4.75,1.66,7.88,5.41,13.08,5.73C118.91,85.88,118.9,83.88,117.62,83.81Z"/><path class="cls-1" d="M133,78.82h0a1,1,0,0,0,0-2h0a1,1,0,0,0,0,2h0a1,1,0,0,0,0-2h0A1,1,0,0,0,133,78.82Z"/></g><g id="Path_12" data-name="Path 12"><path class="cls-1" d="M119.62,78.2A3.67,3.67,0,0,1,117,77.1c-6.11-5.63-10.37-6.13-16.81-6.88A79.44,79.44,0,0,1,87.5,67.94C73.84,64.23,69.17,51.58,68.38,49.09a1.5,1.5,0,1,1,2.85-.92h0c.72,2.24,4.9,13.58,17,16.88a78.59,78.59,0,0,0,12.23,2.19c6.53.76,11.68,1.37,18.55,7.7a.79.79,0,0,0,1.07.1s.14-.13-.17-.51a1.5,1.5,0,0,1,2.34-1.88,3.24,3.24,0,0,1-.18,4.63A3.75,3.75,0,0,1,119.62,78.2Z"/><path class="cls-1" d="M119.89,77.24c-3.33-.63-6.77-4.73-10.08-6A29.39,29.39,0,0,0,103,69.57c-7.68-1.09-15.92-1.48-22.59-5.92A28.66,28.66,0,0,1,70.34,51.4c-.48-1.07-1.49-3.59.17-2.26.69.56,1.35,3.16,1.76,3.92,5.67,10.52,15.68,13.63,26.94,15a50.3,50.3,0,0,1,9.59,1.68,22.94,22.94,0,0,1,4.57,2.08c1.79,1.05,3.35,3.16,5.19,4,1,.46,1.2,0,2.17,0,.28,0,.26-.6.41-.65a1,1,0,0,0,0-.53q-.67-1.86-1.78,2.59c-1.27.23-.73,2.15.53,1.93,3.15-.57,6.3-4.5,3-7.31a2.58,2.58,0,0,0-3.22-.3c-1.63,1.14,0,2.64-.64,3.35,2.48-3-12.58-7.84-14.5-8.15-7-1.13-14.59-1.2-21-4.71-5-2.72-8.55-7.4-10.76-12.53-.74-1.73-1.68-4.39-4.15-3-5.49,3,6.8,15.88,9,17.62,5.65,4.42,12.66,5.83,19.63,6.76,3.91.52,7.92.7,11.63,2.15s6.48,5.4,10.44,6.15C120.61,79.41,121.15,77.48,119.89,77.24Z"/></g><g id="Path_13" data-name="Path 13"><path class="cls-1" d="M135.79,77.19a3.57,3.57,0,0,1-1.18-.2,16.06,16.06,0,0,0-3.14-.52c-3.16-.34-7.49-.8-9.59-4.34-2-3.32-6.93-2.92-7-2.91a1.5,1.5,0,0,1-.27-3c.28,0,6.91-.55,9.83,4.37,1.34,2.25,4.52,2.59,7.33,2.89a17.16,17.16,0,0,1,3.83.68,1.44,1.44,0,0,0,.95-.22,2.32,2.32,0,0,0,1.16-1.4A2.48,2.48,0,0,0,136.47,71a1.52,1.52,0,0,1-1.11-1.8,1.48,1.48,0,0,1,1.76-1.13A5.16,5.16,0,0,1,140,70.36a3.8,3.8,0,0,1,.6,2.89A5.33,5.33,0,0,1,138,76.59,4.78,4.78,0,0,1,135.79,77.19Z"/><path class="cls-1" d="M136.05,76.22c-3.46-.58-7.9-.5-11-2.33-2.3-1.38-3.1-3.89-5.63-5-.76-.32-5.82-.86-4.3-1.73,2.78-1.58,7,2.58,8.51,4a10.11,10.11,0,0,0,6.42,3.09c1.9.32,4.94,1.47,6.85.58a2.87,2.87,0,0,0,1.74-2.58c-.12-1.17-1-1.22-1.51-2-.65-.43-.17-.48,1.43-.14q.94,6-3.09,6.09c-1.27.18-.73,2.1.53,1.93,3.12-.42,6.26-3.1,5.57-6.57-.44-2.18-3.37-5.59-5.88-4.29-3,1.55.62,4.06-1,5.6-.07.07-3-.41-2.94-.4-2.41-.32-3.66-.43-5.58-2.06-1.74-1.48-3.09-3.1-5.19-4.08-1.7-.79-4.73-1.69-6.65-1.09s-3,2.93-1.17,4.4c.69.57,1.58.41,2.37.54,1.7.27,3.47.44,4.85,1.66,1.61,1.44,1,1.78,2.45,2.91,3.4,2.73,8.58,2.7,12.65,3.38C136.78,78.36,137.32,76.43,136.05,76.22Z"/></g><g id="Path_14" data-name="Path 14"><path class="cls-1" d="M137.45,71c-4.19,0-12.46-3.92-16.16-5.79a1.5,1.5,0,1,1,1.36-2.68c6.86,3.47,13.81,6,15.14,5.46a7.76,7.76,0,0,1,1.31-.39c.18,0,.44-.1.68-.17a20.67,20.67,0,0,0-2.88-3,1.5,1.5,0,0,1,1.95-2.28c1.5,1.29,4,3.7,4.16,5.43.23,2.12-2.1,2.67-3.23,2.93a6.35,6.35,0,0,0-.79.22A3.87,3.87,0,0,1,137.45,71Z"/><path class="cls-1" d="M137.45,70c-3.47-.18-6.87-1.64-10-3-1-.45-3.28-1-4.05-1.87-1.2-.3-1.12-.64.23-1,1,.47,1.93.92,2.9,1.35,4.49,2,8.68,4.15,13.53,2.93a1,1,0,0,0,.44-1.68c-.41-.5-1.53-1.35-1.72-1.92-.68-2.1,1.44-.25,1.84.54,1.36,2.65-.42,4.45-3.15,4.66-1.27.1-1.28,2.1,0,2,5.56-.42,8.51-3.78,4.26-8.47-1.27-1.41-3.73-4-5.68-1.91-2.21,2.4,1.81,5,3,6.52l.44-1.67c-5,1.27-10.4-1.93-14.89-4.07-1.87-.89-4.88-1.75-5,1.37-.15,2.87,4.78,4.07,6.83,5,3.5,1.52,7.18,3.06,11,3.27C138.74,72.1,138.74,70.1,137.45,70Z"/></g></g><g id="Group_7" data-name="Group 7"><g id="Group_6" data-name="Group 6"><g id="Path_5" data-name="Path 5"><path class="cls-1" d="M96.36,38.16a14.41,14.41,0,0,1-12.07-6.52,1.5,1.5,0,0,1,.43-2.07,1.43,1.43,0,0,1,1-.23l-.06-.16a1.5,1.5,0,0,1,.94-1.9c3.64-1.21,10.84,2.15,13.62,5,1.58,1.62,1.58,2.9,1.29,3.69-.64,1.79-2.94,2-3.69,2.12C97.37,38.13,96.86,38.16,96.36,38.16Zm-9.43-8a11.41,11.41,0,0,0,10.63,4.9,4.47,4.47,0,0,0,1-.2,10.53,10.53,0,0,0-3.42-2.66c-3-1.65-6.2-2.55-7.55-2.1A1.59,1.59,0,0,1,86.93,30.19Z"/><path class="cls-1" d="M96.36,37.16A14,14,0,0,1,90,35.57c-.28-.15-6.3-4.76-4-5.27a1,1,0,0,0,.69-1.23c-.58-1.46,4.08-.73,4.62-.58a20.45,20.45,0,0,1,4.85,2c.93.53,3,1.47,3.37,2.45s-.13,3.58-1,4a7,7,0,0,1-2.19.19,1,1,0,0,0,0,2c2.29-.06,5.31-.39,6.17-2.94.94-2.78-1.81-5.12-3.82-6.49-2.82-1.92-6.51-3.62-10-3.7-2,0-5,1-3.92,3.57l.69-1.23c-3.76.83-2.23,4-.3,6a15.86,15.86,0,0,0,11.16,4.78C97.65,39.2,97.65,37.2,96.36,37.16Z"/><path class="cls-1" d="M86.07,30.7c2.85,3.89,7.88,6.46,12.77,5.16a1,1,0,0,0,.6-1.47c-2.7-3.58-8.17-5.61-12.51-5.2-1.27.12-1.28,2.12,0,2,3.58-.34,8.51,1.19,10.78,4.21l.6-1.47c-4,1.06-8.2-1.08-10.52-4.24C87,28.66,85.3,29.66,86.07,30.7Z"/></g><g id="Path_6" data-name="Path 6"><path class="cls-1" d="M126.77,65.26c-16.26,0-29.87-4-39.81-7.59C46.82,43.2,25.36,10.46,25.15,10.13a1.5,1.5,0,1,1,2.52-1.62c.21.32,21.15,32.23,60.31,46.34C102.19,60,124.12,66,150.52,59.26c1.46-.68,2.22-1.61,1.26-3.88-3.54-8.34-26.7-24.05-52.72-35.75C68.32,5.81,41.94.81,28.47,6.26a1.5,1.5,0,0,1-1.13-2.78c6.83-2.76,27.6-7,73,13.41C127.8,29.27,150.62,45,154.54,54.21c1.49,3.5.43,6.36-2.91,7.84l-.24.09A99,99,0,0,1,126.77,65.26Z"/><path class="cls-1" d="M126.77,64.26C102.27,64,78,55.42,58,41.34A139.27,139.27,0,0,1,36.67,22.7c-3.15-3.37-7.75-7.5-9.74-11.74-.16-.34-1.87-2.34,0-1.77.69.21,1.94,2.7,2.41,3.32A126.9,126.9,0,0,0,41.72,26.44a130.48,130.48,0,0,0,51,31.08A112.86,112.86,0,0,0,123.5,63.2a97.61,97.61,0,0,0,17.83-1.05c3.06-.47,10.73-.33,11.81-4.35,1.44-5.37-8.55-12.31-11.77-14.82A187.85,187.85,0,0,0,112,24.76C91.19,14,67.25,3.75,43.49,3.12a45.77,45.77,0,0,0-11,.88c-.4.08-4.81,1.57-4.64.34,0-.24,2.14-.72,2.39-.79A46,46,0,0,1,44.11,2.16C68.93,2.89,93.92,14,115.45,25.42c11.27,6,22.84,12.66,32.12,21.51,3.17,3,10.87,10.93,3.56,14.24-3.48,1.58-8.76,1.91-12.45,2.37a105.17,105.17,0,0,1-11.91.72,1,1,0,0,0,0,2,103.86,103.86,0,0,0,19.35-1.9c3.94-.78,9.17-1.42,10-6.25,1.12-6.55-7.19-12.91-11.52-16.42-20-16.28-45.29-28-69.82-35.71C61.26,1.75,45.65-2,31.47,1.19a14.79,14.79,0,0,0-4.39,1.33c-1.77,1.09-2.48,3.75,0,4.7,2.26.88,7.23-1.61,9.7-1.88a64.94,64.94,0,0,1,16.76.74c27.72,4.29,55.36,17.27,78.57,32.71A100.6,100.6,0,0,1,145.4,49a30.9,30.9,0,0,1,4.16,4.55c3.23,4.58-3.6,5.8-6.9,6.37a99.74,99.74,0,0,1-41.37-2A128.69,128.69,0,0,1,42.36,24.27,120.75,120.75,0,0,1,29.92,10c-1.3-1.79-5.74-5.65-5.94-.71-.12,3.07,4.88,7.54,6.62,9.6A140.24,140.24,0,0,0,52.44,39.7C73.59,56,100,66,126.77,66.26A1,1,0,0,0,126.77,64.26Z"/></g><g id="Path_7" data-name="Path 7"><path class="cls-1" d="M71.53,43.41a1.5,1.5,0,0,1-.78-2.79l12.53-7.53a1.5,1.5,0,0,1,2.06.52,1.49,1.49,0,0,1-.51,2L72.3,43.2A1.54,1.54,0,0,1,71.53,43.41Z"/><path class="cls-1" d="M71.79,42.45c-1-.27-.23-1,0-1.27a5.44,5.44,0,0,1,1.34-.81l4.15-2.5,4.26-2.56c.65-.39,2.06-1.7,2.5-.92S83,35.62,82.27,36l-4.21,2.53c-2.1,1.26-4.43,3.22-6.8,3.88a1,1,0,0,0,.53,1.92c3.66-1,7.21-4,10.44-6,1.13-.68,2.69-1.29,3.58-2.3A2.49,2.49,0,0,0,84,31.88c-1.21,0-2.53,1.12-3.5,1.7L73.8,37.63a32.69,32.69,0,0,0-3.55,2.13,2.52,2.52,0,0,0,1,4.61A1,1,0,0,0,71.79,42.45Z"/></g><g id="Line_1" data-name="Line 1"><path class="cls-1" d="M57.2,33.47a1.5,1.5,0,0,1-.11-3l24-1.77a1.5,1.5,0,1,1,.22,3l-24,1.78Z"/><path class="cls-1" d="M57.47,32.51c-2-.77,2.93-1.28,3.19-1.3l8.43-.62,8.06-.6c.27,0,5.17-.77,4.11.71-.3.41-3.82.28-4.26.31l-8.17.61c-3.87.28-7.75.71-11.63.85-1.28,0-1.29,2,0,2,6.34-.22,12.69-.93,19-1.4,1.61-.12,4.08.17,5.61-.51,2.65-1.19,2.21-4.07-.46-4.82-1.75-.49-4.42.27-6.2.4L63,29c-1.83.13-4.45-.16-6.2.47-2.9,1-2.5,3.9.11,4.92C58.14,34.9,58.65,33,57.47,32.51Z"/></g><g id="Path_20" data-name="Path 20"><path class="cls-1" d="M80.19,27.69a1.65,1.65,0,0,1-.57-.11L39,11.12a1.5,1.5,0,1,1,1.13-2.78L80.75,24.8a1.5,1.5,0,0,1-.56,2.89Z"/><path class="cls-1" d="M80.45,26.73c-4.45-.87-9-3.54-13.21-5.23l-22.33-9c-.9-.37-5-1.31-5.44-2.2-.91-1.72,2.92.09,3.36.27l20.54,8.31L75.14,23.6c.42.17,6.83,2.51,4.78,3.13-1.23.37-.7,2.3.53,1.92,2.72-.81,2.76-3.45.46-4.86-2.15-1.31-5-2-7.32-3L46.71,10c-1.91-.77-4.29-2.27-6.34-2.57-3-.44-4.43,2.75-1.91,4.61,1.48,1.08,3.9,1.58,5.58,2.26l13.14,5.32,15.48,6.26c2.32.94,4.79,2.34,7.26,2.82C81.18,28.9,81.72,27,80.45,26.73Z"/></g><g id="Line_3" data-name="Line 3"><path class="cls-1" d="M83.48,26.13a1.51,1.51,0,0,1-1-.41l-10.72-10a1.5,1.5,0,0,1,2-2.2l10.73,10a1.5,1.5,0,0,1,.07,2.12A1.47,1.47,0,0,1,83.48,26.13Z"/><path class="cls-1" d="M83.74,25.16C82.79,25,82.1,24,81.41,23.39L78,20.2l-3.81-3.54c-.56-.52-2-1.33-1.41-2s1.45.67,2,1.22l3.62,3.36L82,22.61c.26.23,2.91,2.2,1.17,2.55-1.26.26-.73,2.19.53,1.93a2.52,2.52,0,0,0,1.4-4.33,44.92,44.92,0,0,0-3.64-3.39L76,14.2c-.91-.84-1.89-2.09-3.25-2.06-2.35,0-3,2.73-1.68,4.3a39.52,39.52,0,0,0,3.35,3.12l5.34,5c1,1,2.06,2.29,3.5,2.56C84.47,27.32,85,25.4,83.74,25.16Z"/></g><g id="Line_4" data-name="Line 4"><path class="cls-1" d="M88.92,26.31a1.51,1.51,0,0,1-1.36-.86l-3.15-6.59a1.5,1.5,0,1,1,2.7-1.29l3.16,6.59a1.5,1.5,0,0,1-.71,2A1.46,1.46,0,0,1,88.92,26.31Z"/><path class="cls-1" d="M89.18,25.34C88,25.17,87.43,22.86,87,22l-1.18-2.47c-.31-.63-.83-1-.06-1.28s.62.12.92.75l1.06,2.22c.35.74,2.5,3.78.9,4.14-1.25.29-.72,2.22.53,1.93,3.54-.81,1.78-4,.77-6.1-.86-1.78-1.82-5.61-4.38-5.44a2.5,2.5,0,0,0-2.19,3.17,13.82,13.82,0,0,0,1.13,2.48c.86,1.8,1.79,5.56,4.14,5.89C89.91,27.45,90.45,25.52,89.18,25.34Z"/></g><g id="Line_6" data-name="Line 6"><path class="cls-1" d="M126.8,40.17a1.22,1.22,0,0,1-.32,0l-22.79-5a1.5,1.5,0,0,1-1.14-1.79,1.48,1.48,0,0,1,1.78-1.14l22.79,5a1.5,1.5,0,0,1-.32,3Z"/><path class="cls-1" d="M126.8,39.17c-2.71-.3-22.86-4.32-22.73-5.48.1-.91,10.13,1.71,11.39,2l7.65,1.68c.18,0,5.34,1.18,3.43,1.85-1.21.43-.69,2.36.53,1.93,2.45-.86,3-3.4.56-4.79-1.59-.91-4.25-1-6-1.37l-11.68-2.55c-1.66-.36-4.14-1.43-5.87-1.17-2.44.36-3.41,2.83-1.35,4.43,1.48,1.16,4.29,1.21,6,1.6,5.92,1.29,12,3.23,18,3.89C128.08,41.31,128.07,39.31,126.8,39.17Z"/></g><g id="Line_7" data-name="Line 7"><path class="cls-1" d="M138.82,55.81a1.46,1.46,0,0,1-.61-.13L103.32,40.1a1.5,1.5,0,0,1,1.22-2.74l34.89,15.58a1.5,1.5,0,0,1-.61,2.87Z"/><path class="cls-1" d="M139.08,54.85c-2.09-.45-4.21-1.75-6.16-2.62L121.27,47c-1.84-.82-17.64-6.72-17.31-8.29.19-.93,5.05,1.71,5.87,2.07L121.48,46l11.65,5.21a31.69,31.69,0,0,1,4,1.78s3.38,1.28,1.43,1.85a1,1,0,0,0,.53,1.93c7.22-2.1-3.64-6.7-5.29-7.44L110.16,38.78c-1.62-.72-3.49-2-5.24-2.34-2.91-.6-4.59,2.31-2.31,4.36,1.15,1,3.29,1.54,4.67,2.16l11.62,5.19,13.35,6c2,.9,4.13,2.2,6.3,2.67C139.81,57.05,140.34,55.12,139.08,54.85Z"/></g><g id="Line_8" data-name="Line 8"><path class="cls-1" d="M101.85,56.23a1.5,1.5,0,0,1-1.44-1.09L96.3,40.91a1.5,1.5,0,1,1,2.88-.83l4.11,14.23a1.49,1.49,0,0,1-1,1.86A1.52,1.52,0,0,1,101.85,56.23Z"/><path class="cls-1" d="M102.12,55.26c-1.66-.36-2.32-5.83-2.71-7.18-.31-1.06-2.63-7.24-1.66-7.55s2.22,5.9,2.52,6.93,2.92,7.57,1.32,7.8c-1.27.18-.73,2.11.53,1.93,4.2-.6,1-7.13.36-9.29s-1.39-9.9-4.77-9.85c-4.48.05-1.28,6.92-.69,9,.69,2.38,1.36,4.78,2.07,7.16.44,1.48.77,2.65,2.5,3C102.84,57.46,103.38,55.54,102.12,55.26Z"/></g><g id="Line_9" data-name="Line 9"><path class="cls-1" d="M84.14,50.47a1.44,1.44,0,0,1-.69-.17,1.49,1.49,0,0,1-.63-2l5.63-10.8a1.5,1.5,0,1,1,2.66,1.39l-5.63,10.8A1.51,1.51,0,0,1,84.14,50.47Z"/><path class="cls-1" d="M84.41,49.51c-1.69-.42,1.54-5.08,2-5.89l2-3.77c.36-.68.65-2,1.43-1.65s-.05,1.19-.4,1.85l-1.93,3.71c-.66,1.26-2,5.46-3.55,5.75-1.27.23-.73,2.16.53,1.93,1.53-.28,2-1.38,2.63-2.62l3.09-5.92c.93-1.77,4.23-7-.23-7.22-2.87-.12-4.62,5.71-5.63,7.64-1.17,2.25-4.77,7-.39,8.12A1,1,0,0,0,84.41,49.51Z"/></g><g id="Path_15" data-name="Path 15"><path class="cls-1" d="M94.54,27.4a1.39,1.39,0,0,1-.53-.1,1.5,1.5,0,0,1-.87-1.94l1.48-3.87a1.5,1.5,0,0,1,2.81,1.07l-1.49,3.87A1.49,1.49,0,0,1,94.54,27.4Z"/><path class="cls-1" d="M94.54,26.4c-1-.09,0-2,.21-2.46s.5-2.11,1-2.35c1.38-.62.17,2.06.09,2.26-.21.57-.57,2.46-1.32,2.55-1.26.15-1.27,2.15,0,2,2.31-.28,2.69-2.53,3.39-4.38a4.49,4.49,0,0,0,.55-2.4,2.52,2.52,0,0,0-2.59-2.09c-2.12.11-2.6,2.65-3.21,4.25A5.79,5.79,0,0,0,92.05,26a2.57,2.57,0,0,0,2.49,2.37C95.83,28.51,95.82,26.51,94.54,26.4Z"/></g><g id="Line_11" data-name="Line 11"><path class="cls-1" d="M98.66,29.81a1.5,1.5,0,0,1-.16-3l8.73-.94a1.5,1.5,0,0,1,.32,3l-8.73.94Z"/><path class="cls-1" d="M98.92,28.84c-3-.55.1-1.12,0-1.07a3.79,3.79,0,0,1,1.17-.13l3-.32c.93-.1,4-.95,4.28.05.25.83-.71.59-1.45.66l-3,.32c-1.43.16-2.87.38-4.3.46-1.28.07-1.29,2.07,0,2,2.68-.15,5.39-.57,8.06-.86,1.24-.14,2.42-.35,3-1.64a2.5,2.5,0,0,0-1.87-3.38,12.24,12.24,0,0,0-3.41.25l-5,.53c-1.06.12-2.16.18-2.83,1.15a2.51,2.51,0,0,0,1.76,3.91C99.65,31,100.19,29.08,98.92,28.84Z"/></g><g id="Group_5" data-name="Group 5"><g id="Group_1" data-name="Group 1"><g id="Group_4" data-name="Group 4"><g id="Path_2" data-name="Path 2"><path class="cls-1" d="M94.84,190.4c-1.2,0-2.26,0-3.14-.12-55.52-3.53-85.88-13-90.2-28.18C-2,149.79,13,139,13.58,138.53A1.5,1.5,0,0,1,15.32,141c-.14.1-13.86,10-10.93,20.31,2.71,9.49,20.09,21.71,87.54,26,14.5,1.34,77.63-8.38,85.54-27.62,2.38-5.8-.65-12.24-9-19.13a1.5,1.5,0,1,1,1.91-2.32c9.51,7.83,12.84,15.43,9.89,22.59-4.84,11.77-25.86,19.21-42.64,23.37C121.56,188.15,103.92,190.4,94.84,190.4Z"/><path class="cls-1" d="M94.84,189.4c-22-.39-45.54-3.16-66.65-9.65C18.22,176.68,1,170.52,2,157.28c.36-5,3.41-9.53,6.74-13.1.54-.57,5.89-5.9,6-4,0,.62-4.47,3.91-5,4.41a25.69,25.69,0,0,0-6.11,9.5c-2.39,7.53,2.1,13.41,8,17.39C22,178.33,35.14,181,47.05,183.21c10.23,1.87,20.58,3.1,30.94,4,7.56.68,15.13,1.48,22.72,1a203.74,203.74,0,0,0,45.07-8.34c10.64-3.21,26.34-7.86,32-18.53a12.05,12.05,0,0,0,.84-9.41,19.48,19.48,0,0,0-3.32-5.93c-.7-.89-1.45-1.74-2.23-2.55-.6-.63-4-4.2-1.32-2.66,5.7,3.22,9.88,12.41,7.93,18.63C178,164.8,173,168.68,168.4,171.5c-10.44,6.37-22.69,9.82-34.53,12.54-12.71,2.93-25.94,5.25-39,5.36a1,1,0,0,0,0,2c11.49-.09,23.11-2,34.34-4.3s22.35-5.26,32.76-10c7.58-3.44,17-8.62,19.68-17.19a15,15,0,0,0-.54-10.09c-1.66-4.14-6.14-10.59-10.23-12.49-1.82-.85-3.94-.12-3.95,2.16,0,1.78,2.53,3.14,3.57,4.14,2.56,2.46,5.12,5.34,6.23,8.8,2.7,8.4-5.75,14.29-12,17.74-15.17,8.33-33.36,12-50.33,14.5-18,2.64-35.38,1.05-53.35-1.33-15.39-2-32.7-4.45-46.35-12.45-3.07-1.8-6.17-4.06-8-7.16-4.25-7,1.19-14.66,6.34-19.47,1.07-1,3.63-2.39,4-4,.51-2.47-2-3.33-3.82-2.6C8.31,139.56,3.34,147,1.48,151.4c-6.09,14.36,7.86,23.42,19.33,27.91,9.75,3.82,20.14,6,30.44,7.66,14.31,2.34,29.09,4.18,43.59,4.43A1,1,0,0,0,94.84,189.4Z"/></g><g id="Path_3" data-name="Path 3"><path class="cls-1" d="M94.21,109.41q-5.92,0-12.25-.59A125.09,125.09,0,0,1,34,94.26a1.51,1.51,0,0,1-.61-2,1.5,1.5,0,0,1,2-.6,122.12,122.12,0,0,0,46.86,14.21c18.58,1.72,34.57-.44,47.53-6.43a1.5,1.5,0,0,1,1.26,2.72C120.54,107,108.19,109.41,94.21,109.41Z"/><path class="cls-1" d="M94.21,108.41A127.55,127.55,0,0,1,42.29,97.29c-1.66-.76-4.12-1.47-5.51-2.67-2.45-2.12,2-.13,2.82.29,3.24,1.57,6.56,3,9.93,4.3a121.18,121.18,0,0,0,24.54,6.58c14.79,2.36,30.41,2.5,45-1.45,2.52-.69,6.06-2.76,8.61-2.93,1.13-1,1.63-.83,1.51.47q-2,.86-4,1.59c-1.47.52-3,1-4.45,1.44a96.47,96.47,0,0,1-26.46,3.5,1,1,0,0,0,0,2,103,103,0,0,0,23.15-2.56,76.53,76.53,0,0,0,10.44-3.27c1.52-.61,4.39-1.2,5-3,1.73-5.57-6.72-1.63-7.93-1.18a81.6,81.6,0,0,1-23.23,4.79,121.79,121.79,0,0,1-51.54-7.87,131,131,0,0,1-12.61-5.7c-1.49-.76-2.93-1.69-4.37-.43-4.11,3.58,6.37,7,8.2,7.85a129.63,129.63,0,0,0,52.93,11.4A1,1,0,0,0,94.21,108.41Z"/></g></g><g id="Path_18" data-name="Path 18"><path class="cls-1" d="M140,77.76"/><path class="cls-2" d="M140,78.76a1,1,0,0,0,0-2,1,1,0,0,0,0,2Z"/></g></g><g id="Path_16" data-name="Path 16"><path class="cls-1" d="M22.52,161.78a1.49,1.49,0,0,1-1.36-.86C9.07,135.31,5.43,108.59,11.89,92.86c9-21.89,31-27.74,32-28a1.5,1.5,0,0,1,.74,2.9c-.21.06-21.55,5.75-29.95,26.21-6.15,15-2.54,40.76,9.21,65.65a1.51,1.51,0,0,1-.72,2A1.41,1.41,0,0,1,22.52,161.78Z"/><path class="cls-1" d="M22.78,160.82c-2.23-.64-4.16-8.17-4.79-9.8-.89-2.31-1.73-4.63-2.5-7a124.84,124.84,0,0,1-4-15.37c-1.79-9.3-2.58-19.16-.71-28.52,2.89-14.47,13.84-26,27-31.95,1.35-.62,3.5-1.89,5-2,.93,0,2.09-.49,1,.74-.53.6-2.76,1-3.5,1.27a53.58,53.58,0,0,0-6,2.9c-11.59,6.49-20.62,17.42-22.84,30.72-1.4,8.44-.74,17.16.78,25.55a123.86,123.86,0,0,0,4.37,16.86c.43,1.28,6.35,16.39,5.64,16.55-1.26.28-.72,2.21.53,1.93,2-.45,2.27-1.85,1.95-3.61-.58-3.29-3.13-7-4.33-10.2-1.29-3.4-2.45-6.86-3.46-10.35-3-10.48-5-21.6-4-32.53C14.44,89,26.65,75.29,42.49,69.53c1.89-.69,6.82-2.81,3.12-5.28-2.15-1.42-6.62,1.21-8.48,2C23.34,72.47,11.9,84.53,8.84,99.61c-2.14,10.55-1,21.66,1.22,32.09a132.21,132.21,0,0,0,5.66,19c1.25,3.29,2.79,11,6.53,12.07A1,1,0,0,0,22.78,160.82Z"/></g><g id="Path_17" data-name="Path 17"><path class="cls-1" d="M160.38,160.66a1.41,1.41,0,0,1-.63-.14,1.5,1.5,0,0,1-.73-2c13.13-28.53,15.67-51.38,7.55-67.93-8.29-16.89-25.21-21-25.38-21a1.5,1.5,0,0,1,.66-2.93,43.67,43.67,0,0,1,27.39,22.56c8.57,17.4,6,41.14-7.5,70.56A1.5,1.5,0,0,1,160.38,160.66Z"/><path class="cls-1" d="M160.64,159.69c-1-.22,4.08-12.12,4.41-13a131.55,131.55,0,0,0,4.53-14.5,80.36,80.36,0,0,0,2.58-22.31c-.51-13.13-5.71-25.63-16.25-33.83a43.24,43.24,0,0,0-12.39-6.78c-.36-.12-3.14-.67-1.84-1.6.4-.29,3,.92,3.39,1.07a43.12,43.12,0,0,1,26.51,29.79c2.32,9.09,1.94,18.69.27,27.86a113.48,113.48,0,0,1-3.62,14.19q-1.36,4.25-3,8.4c-.82,2.12-2.88,10.07-5.15,10.72a1,1,0,0,0,.53,1.93c3.2-.92,4-5.87,5.16-8.66a147.57,147.57,0,0,0,5.81-16.72c2.52-9.05,4.07-18.55,3.48-28-1-15.37-8.35-29.56-21.68-37.68-3-1.83-7.54-4.64-11.2-4.87s-3.93,3.59-.91,4.93c5.34,2.37,10.22,4.19,14.8,8.1A40.27,40.27,0,0,1,169.29,102c2.09,10.87.46,22.19-2.45,32.75a147.81,147.81,0,0,1-7.49,20.6c-.93,2.11-2.78,5.47.76,6.25C161.37,161.9,161.9,160,160.64,159.69Z"/></g></g><g id="Path_19" data-name="Path 19"><path class="cls-1" d="M136.69,98.62a1.5,1.5,0,0,1-.79-2.77,9,9,0,0,0,2.33-2.07,1.5,1.5,0,0,1,2.35,1.86,11.87,11.87,0,0,1-3.11,2.76A1.46,1.46,0,0,1,136.69,98.62Z"/><path class="cls-1" d="M136.69,97.62c-1.47-.14.52-1.46.77-1.66a9.09,9.09,0,0,0,1-.94c.23-.25.5-.78.88-.81,1.31-.09-.17,1.52-.41,1.77-.53.52-1.48,1.57-2.26,1.64-1.27.12-1.29,2.12,0,2a4.81,4.81,0,0,0,2.63-1.31,8.75,8.75,0,0,0,2.27-2.39,2.53,2.53,0,0,0-2.23-3.71,3.15,3.15,0,0,0-2.29,1.39c-.7.75-1.73,1.19-2.35,2a2.53,2.53,0,0,0,2,4C138,99.75,138,97.75,136.69,97.62Z"/></g></g></g></g></g></g></g></svg>